<svg xmlns="http://www.w3.org/2000/svg" font-family="'DM Sans', system-ui, sans-serif" font-size="13" viewBox="0 0 720 680"><defs><marker id="arr" markerHeight="7" markerWidth="7" orient="auto-start-reverse" refX="10" refY="5" viewBox="0 0 10 10"><path fill="#64748b" d="M 0 0 L 10 5 L 0 10 z"/></marker><marker id="arr-amber" markerHeight="7" markerWidth="7" orient="auto-start-reverse" refX="10" refY="5" viewBox="0 0 10 10"><path fill="#c0623a" d="M 0 0 L 10 5 L 0 10 z"/></marker><marker id="arr-teal" markerHeight="7" markerWidth="7" orient="auto-start-reverse" refX="10" refY="5" viewBox="0 0 10 10"><path fill="#6b7c4e" d="M 0 0 L 10 5 L 0 10 z"/></marker><filter id="s" width="106%" height="106%" x="-3%" y="-3%"><feDropShadow dx="0" dy="1" flood-opacity=".06" stdDeviation="2"/></filter></defs><rect width="720" height="680" fill="#faf7f2" rx="8"/><text x="360" y="36" fill="#2c2418" font-family="'Instrument Serif', Georgia, serif" font-size="15" font-weight="600" letter-spacing="-.02em" text-anchor="middle">DNSSEC Chain of Trust</text><text x="360" y="54" fill="#a39888" font-size="11" text-anchor="middle">Verifying cloudflare.com — from answer to root trust anchor</text><g transform="translate(28, 72)"><rect width="14" height="14" fill="#c0623a" stroke="#c0623a" stroke-width="1" opacity=".15" rx="3"/><text x="20" y="12" fill="#6b5e4f" font-size="11">Verify signature (RRSIG → DNSKEY)</text><rect width="14" height="14" x="230" fill="#6b7c4e" stroke="#6b7c4e" stroke-width="1" opacity=".15" rx="3"/><text x="250" y="12" fill="#6b5e4f" font-size="11">Vouch for key (DS → parent DNSKEY)</text><rect width="14" height="14" x="478" fill="#2c2418" stroke="#2c2418" stroke-opacity=".15" stroke-width="1" opacity=".08" rx="3"/><text x="498" y="12" fill="#6b5e4f" font-size="11">DNS record / key</text></g><rect width="640" height="152" x="40" y="104" fill="none" stroke="rgba(0,0,0,0.06)" stroke-dasharray="4 3" rx="8"/><text x="56" y="122" fill="#a39888" font-family="'JetBrains Mono', monospace" font-size="10" font-weight="600" letter-spacing=".08em">CLOUDFLARE.COM ZONE</text><rect width="320" height="38" x="80" y="138" fill="#fff" stroke="rgba(0,0,0,0.08)" filter="url(#s)" rx="6"/><text x="96" y="157" fill="#2c2418" font-family="'JetBrains Mono', monospace" font-size="12" font-weight="600">cloudflare.com A 104.16.132.229</text><text x="96" y="170" fill="#a39888" font-size="10">The answer we want to verify</text><line x1="400" x2="440" y1="157" y2="157" stroke="#c0623a" stroke-width="1.5" marker-end="url(#arr-amber)"/><text x="412" y="149" fill="#c0623a" font-size="9" font-weight="600">signed by</text><rect width="220" height="38" x="445" y="138" fill="rgba(192,98,58,0.06)" stroke="rgba(192,98,58,0.2)" filter="url(#s)" rx="6"/><text x="461" y="155" fill="#9e4e2d" font-family="'JetBrains Mono', monospace" font-size="11" font-weight="600">RRSIG</text><text x="505" y="155" fill="#6b5e4f" font-size="11">tag=34505, algo=13</text><text x="461" y="170" fill="#a39888" font-size="10">signer: cloudflare.com</text><rect width="320" height="50" x="80" y="192" fill="#fff" stroke="rgba(0,0,0,0.08)" filter="url(#s)" rx="6"/><text x="96" y="211" fill="#2c2418" font-family="'JetBrains Mono', monospace" font-size="11" font-weight="600">DNSKEY</text><text x="156" y="211" fill="#6b5e4f" font-size="11">cloudflare.com, tag=34505</text><text x="96" y="228" fill="#6b7c4e" font-size="11" font-weight="500">ECDSA P-256</text><text x="194" y="228" fill="#a39888" font-size="10">— 174ns to verify</text><path fill="none" stroke="#c0623a" stroke-width="1.5" marker-end="url(#arr-amber)" d="M 555 176 L 555 192 L 400 192 L 400 200"/><text x="460" y="189" fill="#c0623a" font-size="9" font-weight="600">verified with</text><rect width="640" height="132" x="40" y="270" fill="none" stroke="rgba(0,0,0,0.06)" stroke-dasharray="4 3" rx="8"/><text x="56" y="288" fill="#a39888" font-family="'JetBrains Mono', monospace" font-size="10" font-weight="600" letter-spacing=".08em">.COM TLD ZONE</text><line x1="240" x2="240" y1="242" y2="302" stroke="#6b7c4e" stroke-width="1.5" marker-end="url(#arr-teal)"/><text x="252" y="276" fill="#6b7c4e" font-size="9" font-weight="600">vouched for by</text><rect width="320" height="38" x="80" y="304" fill="rgba(107,124,78,0.06)" stroke="rgba(107,124,78,0.2)" filter="url(#s)" rx="6"/><text x="96" y="321" fill="#566540" font-family="'JetBrains Mono', monospace" font-size="11" font-weight="600">DS</text><text x="118" y="321" fill="#6b5e4f" font-size="11">tag=2371, digest=SHA-256</text><text x="96" y="336" fill="#a39888" font-size="10">hash of cloudflare.com DNSKEY</text><line x1="400" x2="440" y1="323" y2="323" stroke="#c0623a" stroke-width="1.5" marker-end="url(#arr-amber)"/><text x="412" y="315" fill="#c0623a" font-size="9" font-weight="600">signed by</text><rect width="220" height="38" x="445" y="304" fill="rgba(192,98,58,0.06)" stroke="rgba(192,98,58,0.2)" filter="url(#s)" rx="6"/><text x="461" y="321" fill="#9e4e2d" font-family="'JetBrains Mono', monospace" font-size="11" font-weight="600">RRSIG</text><text x="505" y="321" fill="#6b5e4f" font-size="11">tag=19718, signer=com</text><rect width="320" height="32" x="80" y="356" fill="#fff" stroke="rgba(0,0,0,0.08)" filter="url(#s)" rx="6"/><text x="96" y="377" fill="#2c2418" font-family="'JetBrains Mono', monospace" font-size="11" font-weight="600">DNSKEY</text><text x="156" y="377" fill="#6b5e4f" font-size="11">com, tag=19718</text><path fill="none" stroke="#c0623a" stroke-width="1.5" marker-end="url(#arr-amber)" d="M 555 342 L 555 356 L 400 356 L 400 366"/><text x="460" y="353" fill="#c0623a" font-size="9" font-weight="600">verified with</text><rect width="640" height="132" x="40" y="404" fill="none" stroke="rgba(0,0,0,0.06)" stroke-dasharray="4 3" rx="8"/><text x="56" y="422" fill="#a39888" font-family="'JetBrains Mono', monospace" font-size="10" font-weight="600" letter-spacing=".08em">ROOT ZONE (.)</text><line x1="240" x2="240" y1="388" y2="436" stroke="#6b7c4e" stroke-width="1.5" marker-end="url(#arr-teal)"/><text x="252" y="416" fill="#6b7c4e" font-size="9" font-weight="600">vouched for by</text><rect width="320" height="38" x="80" y="438" fill="rgba(107,124,78,0.06)" stroke="rgba(107,124,78,0.2)" filter="url(#s)" rx="6"/><text x="96" y="455" fill="#566540" font-family="'JetBrains Mono', monospace" font-size="11" font-weight="600">DS</text><text x="118" y="455" fill="#6b5e4f" font-size="11">tag=30909, digest=SHA-256</text><text x="96" y="470" fill="#a39888" font-size="10">hash of com DNSKEY</text><line x1="400" x2="440" y1="457" y2="457" stroke="#c0623a" stroke-width="1.5" marker-end="url(#arr-amber)"/><text x="412" y="449" fill="#c0623a" font-size="9" font-weight="600">signed by</text><rect width="220" height="38" x="445" y="438" fill="rgba(192,98,58,0.06)" stroke="rgba(192,98,58,0.2)" filter="url(#s)" rx="6"/><text x="461" y="455" fill="#9e4e2d" font-family="'JetBrains Mono', monospace" font-size="11" font-weight="600">RRSIG</text><text x="505" y="455" fill="#6b5e4f" font-size="11">signer=.</text><rect width="320" height="32" x="80" y="490" fill="#fff" stroke="rgba(0,0,0,0.08)" filter="url(#s)" rx="6"/><text x="96" y="511" fill="#2c2418" font-family="'JetBrains Mono', monospace" font-size="11" font-weight="600">DNSKEY</text><text x="156" y="511" fill="#6b5e4f" font-size="11">root (.), tag=20326, RSA/SHA-256</text><path fill="none" stroke="#c0623a" stroke-width="1.5" marker-end="url(#arr-amber)" d="M 555 476 L 555 490 L 400 490 L 400 500"/><text x="460" y="487" fill="#c0623a" font-size="9" font-weight="600">verified with</text><line x1="240" x2="240" y1="522" y2="558" stroke="#2c2418" stroke-dasharray="4 3" stroke-width="2"/><rect width="480" height="52" x="120" y="560" fill="#2c2418" filter="url(#s)" rx="8"/><text x="360" y="582" fill="#faf7f2" font-family="'JetBrains Mono', monospace" font-size="12" font-weight="600" text-anchor="middle">ROOT TRUST ANCHOR</text><text x="360" y="600" fill="#a39888" font-size="11" text-anchor="middle">IANA KSK, key_tag=20326 — hardcoded in Numa as const [u8; 256]</text><text x="360" y="646" fill="#6b5e4f" font-size="12" font-style="italic" text-anchor="middle">Trust flows up (DS records). Keys flow down (DNSKEY → RRSIG).</text><text x="360" y="664" fill="#a39888" font-size="11" text-anchor="middle">If any link breaks — wrong signature, missing DS, expired RRSIG — Numa rejects the response.</text></svg>